# xmcd CD database file
#
# Track frame offsets:
#	150
#	9780
#	33762
#	51009
#	63131
#	82816
#	99870
#	113860
#	131345
#	143114
#	158166
#	169158
#	186605
#	201674
#
# Disc length: 2879 seconds
#
# Revision: 0
# Processed by: cddbd v1.5.2PL0 Copyright (c) Steve Scherf et al.
# Submitted via: CDex 1.70beta2
#
DISCID=ae0b3d0e
DTITLE=Various Artist - Kristian's spesial
DYEAR=1900
DGENRE=Country
TTITLE0=Kiss an angel good morning
TTITLE1=Juanita
TTITLE2=Deportee
TTITLE3=I'd fight the world
TTITLE4=Speed of the sound of lonliness
TTITLE5=Marco Antonio Solis
TTITLE6=Donna Ulise
TTITLE7=Sowin' love
TTITLE8=Sora Evans
TTITLE9=Castaway heart
TTITLE10=I got Mexico
TTITLE11=Island
TTITLE12=Candee land
TTITLE13=Emmylou Harris
EXTD=
EXTT0=
EXTT1=
EXTT2=
EXTT3=
EXTT4=
EXTT5=
EXTT6=
EXTT7=
EXTT8=
EXTT9=
EXTT10=
EXTT11=
EXTT12=
EXTT13=
PLAYORDER=
